<mxfile host="app.diagrams.net">
  <diagram name="Art Detail Page Wireframe" id="art-detail">
    <mxGraphModel dx="1434" dy="844" grid="1" gridSize="10" guides="1" tooltips="1" connect="1" arrows="1" fold="1" page="1" pageScale="1" pageWidth="1200" pageHeight="1800" math="0" shadow="0">
      <root>
        <mxCell id="0" />
        <mxCell id="1" parent="0" />

        <!-- Browser Window -->
        <mxCell id="browser" value="" style="rounded=0;whiteSpace=wrap;html=1;fillColor=#f5f5f5;strokeColor=#666666;" vertex="1" parent="1">
          <mxGeometry x="40" y="40" width="1120" height="1720" as="geometry" />
        </mxCell>

        <!-- Header -->
        <mxCell id="header" value="HEADER - Indigenous Art Atlas | Home | Browse | About | Guidelines | Login" style="rounded=0;whiteSpace=wrap;html=1;fillColor=#dae8fc;strokeColor=#6c8ebf;fontStyle=1" vertex="1" parent="1">
          <mxGeometry x="40" y="40" width="1120" height="60" as="geometry" />
        </mxCell>

        <!-- Main Layout Container -->
        <mxCell id="main-container" value="" style="rounded=0;whiteSpace=wrap;html=1;fillColor=none;strokeColor=none;" vertex="1" parent="1">
          <mxGeometry x="40" y="120" width="1120" height="1400" as="geometry" />
        </mxCell>

        <!-- Left Column (60%) -->
        <mxCell id="left-column" value="" style="rounded=0;whiteSpace=wrap;html=1;fillColor=#e1d5e7;strokeColor=#9673a6;align=left;verticalAlign=top;" vertex="1" parent="1">
          <mxGeometry x="60" y="140" width="660" height="1360" as="geometry" />
        </mxCell>

        <!-- Image Gallery -->
        <mxCell id="gallery-title" value="IMAGE GALLERY" style="text;html=1;strokeColor=none;fillColor=none;align=left;verticalAlign=middle;whiteSpace=wrap;rounded=0;fontSize=12;fontStyle=1" vertex="1" parent="1">
          <mxGeometry x="80" y="160" width="120" height="20" as="geometry" />
        </mxCell>

        <!-- Main Image -->
        <mxCell id="main-image" value="[ MAIN IMAGE ]&#xa;&#xa;&#xa;🖼️&#xa;Primary Art Image&#xa;Click for Lightbox&#xa;&#xa;&#xa;&#xa;← Prev          2 / 5          Next →" style="rounded=0;whiteSpace=wrap;html=1;fillColor=#e3f2fd;strokeColor=#1976d2;align=center;fontSize=14;" vertex="1" parent="1">
          <mxGeometry x="80" y="190" width="620" height="400" as="geometry" />
        </mxCell>

        <!-- Thumbnail Strip -->
        <mxCell id="thumb1" value="[img]" style="rounded=0;whiteSpace=wrap;html=1;fillColor=#ffffff;strokeColor=#d2691e;strokeWidth=2;" vertex="1" parent="1">
          <mxGeometry x="80" y="610" width="100" height="70" as="geometry" />
        </mxCell>

        <mxCell id="thumb2" value="[img]" style="rounded=0;whiteSpace=wrap;html=1;fillColor=#ffffff;strokeColor=#666666;" vertex="1" parent="1">
          <mxGeometry x="195" y="610" width="100" height="70" as="geometry" />
        </mxCell>

        <mxCell id="thumb3" value="[img]" style="rounded=0;whiteSpace=wrap;html=1;fillColor=#ffffff;strokeColor=#666666;" vertex="1" parent="1">
          <mxGeometry x="310" y="610" width="100" height="70" as="geometry" />
        </mxCell>

        <mxCell id="thumb4" value="[img]" style="rounded=0;whiteSpace=wrap;html=1;fillColor=#ffffff;strokeColor=#666666;" vertex="1" parent="1">
          <mxGeometry x="425" y="610" width="100" height="70" as="geometry" />
        </mxCell>

        <mxCell id="thumb5" value="[img]" style="rounded=0;whiteSpace=wrap;html=1;fillColor=#ffffff;strokeColor=#666666;" vertex="1" parent="1">
          <mxGeometry x="540" y="610" width="100" height="70" as="geometry" />
        </mxCell>

        <!-- Art Title & Info -->
        <mxCell id="art-title" value="Gumatj Clan Creation Stories Mural" style="text;html=1;strokeColor=none;fillColor=none;align=left;verticalAlign=middle;whiteSpace=wrap;rounded=0;fontSize=24;fontStyle=1" vertex="1" parent="1">
          <mxGeometry x="80" y="710" width="620" height="40" as="geometry" />
        </mxCell>

        <!-- Badges -->
        <mxCell id="badge1" value="Mural" style="rounded=1;whiteSpace=wrap;html=1;fillColor=#cd853f;strokeColor=none;fontColor=#ffffff;fontSize=11;" vertex="1" parent="1">
          <mxGeometry x="80" y="760" width="80" height="25" as="geometry" />
        </mxCell>

        <mxCell id="badge2" value="Contemporary" style="rounded=1;whiteSpace=wrap;html=1;fillColor=#9e9e9e;strokeColor=none;fontColor=#ffffff;fontSize=11;" vertex="1" parent="1">
          <mxGeometry x="175" y="760" width="110" height="25" as="geometry" />
        </mxCell>

        <!-- Description Section -->
        <mxCell id="desc-heading" value="Description" style="text;html=1;strokeColor=none;fillColor=none;align=left;verticalAlign=middle;whiteSpace=wrap;rounded=0;fontSize=16;fontStyle=1" vertex="1" parent="1">
          <mxGeometry x="80" y="810" width="620" height="25" as="geometry" />
        </mxCell>

        <mxCell id="description" value="A vibrant contemporary mural created by the Yirrkala community depicting Gumatj Clan creation stories. The mural combines traditional patterns with modern techniques, showing the connection between ancestral knowledge and contemporary expression.&#xa;&#xa;Created as part of a youth engagement program to pass cultural knowledge to the next generation..." style="rounded=0;whiteSpace=wrap;html=1;fillColor=#ffffff;strokeColor=#666666;align=left;verticalAlign=top;fontSize=12;" vertex="1" parent="1">
          <mxGeometry x="80" y="845" width="620" height="140" as="geometry" />
        </mxCell>

        <!-- Condition Section -->
        <mxCell id="cond-heading" value="Condition Notes" style="text;html=1;strokeColor=none;fillColor=none;align=left;verticalAlign=middle;whiteSpace=wrap;rounded=0;fontSize=16;fontStyle=1" vertex="1" parent="1">
          <mxGeometry x="80" y="1010" width="620" height="25" as="geometry" />
        </mxCell>

        <mxCell id="condition" value="Excellent - recently completed in 2024" style="rounded=0;whiteSpace=wrap;html=1;fillColor=#ffffff;strokeColor=#666666;align=left;verticalAlign=top;fontSize=12;" vertex="1" parent="1">
          <mxGeometry x="80" y="1045" width="620" height="40" as="geometry" />
        </mxCell>

        <!-- Artist Section -->
        <mxCell id="artist-heading" value="Artist Information" style="text;html=1;strokeColor=none;fillColor=none;align=left;verticalAlign=middle;whiteSpace=wrap;rounded=0;fontSize=16;fontStyle=1" vertex="1" parent="1">
          <mxGeometry x="80" y="1110" width="620" height="25" as="geometry" />
        </mxCell>

        <mxCell id="artist-info" value="Uncle Tommy Williams and Youth Art Group" style="rounded=0;whiteSpace=wrap;html=1;fillColor=#ffffff;strokeColor=#666666;align=left;verticalAlign=top;fontSize=12;" vertex="1" parent="1">
          <mxGeometry x="80" y="1145" width="620" height="40" as="geometry" />
        </mxCell>

        <!-- Right Column (40%) -->
        <mxCell id="right-column" value="" style="rounded=0;whiteSpace=wrap;html=1;fillColor=#fff2cc;strokeColor=#d6b656;align=left;verticalAlign=top;" vertex="1" parent="1">
          <mxGeometry x="740" y="140" width="400" height="1360" as="geometry" />
        </mxCell>

        <!-- Location Card -->
        <mxCell id="location-card" value="LOCATION" style="rounded=0;whiteSpace=wrap;html=1;fillColor=#ffffff;strokeColor=#666666;align=left;verticalAlign=top;fontStyle=1;fontSize=14;" vertex="1" parent="1">
          <mxGeometry x="760" y="160" width="360" height="340" as="geometry" />
        </mxCell>

        <!-- Location Map -->
        <mxCell id="location-map" value="[ MAP ]&#xa;&#xa;🗺️&#xa;Leaflet Map&#xa;Showing Location&#xa;&#xa;" style="rounded=0;whiteSpace=wrap;html=1;fillColor=#e3f2fd;strokeColor=#1976d2;align=center;fontSize=12;" vertex="1" parent="1">
          <mxGeometry x="780" y="195" width="320" height="200" as="geometry" />
        </mxCell>

        <!-- Location Description -->
        <mxCell id="location-desc" value="📍 Yirrkala Community Center,&#xa;Arnhem Land, Northern Territory" style="rounded=0;whiteSpace=wrap;html=1;fillColor=#f5f5dc;strokeColor=#666666;align=left;fontSize=11;" vertex="1" parent="1">
          <mxGeometry x="780" y="410" width="320" height="50" as="geometry" />
        </mxCell>

        <!-- Publicly Accessible Badge -->
        <mxCell id="access-badge" value="✓ Publicly Accessible" style="rounded=1;whiteSpace=wrap;html=1;fillColor=#4caf50;strokeColor=none;fontColor=#ffffff;fontSize=11;fontStyle=1" vertex="1" parent="1">
          <mxGeometry x="780" y="470" width="150" height="20" as="geometry" />
        </mxCell>

        <!-- Metadata Card -->
        <mxCell id="metadata-card" value="DETAILS" style="rounded=0;whiteSpace=wrap;html=1;fillColor=#ffffff;strokeColor=#666666;align=left;verticalAlign=top;fontStyle=1;fontSize=14;" vertex="1" parent="1">
          <mxGeometry x="760" y="520" width="360" height="280" as="geometry" />
        </mxCell>

        <!-- Metadata Items -->
        <mxCell id="meta-content" value="Art Type:        Mural&#xa;&#xa;Period:           Contemporary&#xa;&#xa;Artist:            Uncle Tommy Williams&#xa;&#xa;Submitted By:  Uncle Tommy Williams&#xa;&#xa;Date Added:     Oct 5, 2024&#xa;&#xa;Views:            128" style="rounded=0;whiteSpace=wrap;html=1;fillColor=#f5f5f5;strokeColor=none;align=left;verticalAlign=top;fontSize=11;spacing=10;" vertex="1" parent="1">
          <mxGeometry x="780" y="555" width="320" height="230" as="geometry" />
        </mxCell>

        <!-- Actions Card -->
        <mxCell id="actions-card" value="ACTIONS" style="rounded=0;whiteSpace=wrap;html=1;fillColor=#ffffff;strokeColor=#666666;align=left;verticalAlign=top;fontStyle=1;fontSize=14;" vertex="1" parent="1">
          <mxGeometry x="760" y="820" width="360" height="120" as="geometry" />
        </mxCell>

        <!-- Action Buttons -->
        <mxCell id="btn-report" value="Report Content" style="rounded=1;whiteSpace=wrap;html=1;fillColor=#f5f5f5;strokeColor=#666666;fontSize=11;" vertex="1" parent="1">
          <mxGeometry x="780" y="860" width="320" height="30" as="geometry" />
        </mxCell>

        <mxCell id="btn-back" value="Back to Browse" style="rounded=1;whiteSpace=wrap;html=1;fillColor=#ffffff;strokeColor=#d2691e;fontColor=#d2691e;fontSize=11;fontStyle=1" vertex="1" parent="1">
          <mxGeometry x="780" y="900" width="320" height="30" as="geometry" />
        </mxCell>

        <!-- Related Art Section -->
        <mxCell id="related-section" value="SIMILAR ART NEARBY" style="rounded=0;whiteSpace=wrap;html=1;fillColor=#d5e8d4;strokeColor=#82b366;fontStyle=1" vertex="1" parent="1">
          <mxGeometry x="60" y="1220" width="1080" height="260" as="geometry" />
        </mxCell>

        <mxCell id="related-title" value="Similar Art Nearby" style="text;html=1;strokeColor=none;fillColor=none;align=left;verticalAlign=middle;whiteSpace=wrap;rounded=0;fontSize=18;fontStyle=1" vertex="1" parent="1">
          <mxGeometry x="80" y="1240" width="200" height="25" as="geometry" />
        </mxCell>

        <!-- Related Cards -->
        <mxCell id="rel-card1" value="[img]&#xa;&#xa;Title&#xa;Type" style="rounded=0;whiteSpace=wrap;html=1;fillColor=#ffffff;strokeColor=#666666;align=center;fontSize=11;" vertex="1" parent="1">
          <mxGeometry x="80" y="1280" width="180" height="180" as="geometry" />
        </mxCell>

        <mxCell id="rel-card2" value="[img]&#xa;&#xa;Title&#xa;Type" style="rounded=0;whiteSpace=wrap;html=1;fillColor=#ffffff;strokeColor=#666666;align=center;fontSize=11;" vertex="1" parent="1">
          <mxGeometry x="280" y="1280" width="180" height="180" as="geometry" />
        </mxCell>

        <mxCell id="rel-card3" value="[img]&#xa;&#xa;Title&#xa;Type" style="rounded=0;whiteSpace=wrap;html=1;fillColor=#ffffff;strokeColor=#666666;align=center;fontSize=11;" vertex="1" parent="1">
          <mxGeometry x="480" y="1280" width="180" height="180" as="geometry" />
        </mxCell>

        <!-- Footer -->
        <mxCell id="footer" value="FOOTER - Quick Links | About | Contact | © 2024 Indigenous Art Atlas" style="rounded=0;whiteSpace=wrap;html=1;fillColor=#3e2723;strokeColor=#000000;fontColor=#ffffff;align=center;" vertex="1" parent="1">
          <mxGeometry x="40" y="1540" width="1120" height="60" as="geometry" />
        </mxCell>

        <!-- Back to Top Button -->
        <mxCell id="back-to-top" value="↑" style="ellipse;whiteSpace=wrap;html=1;fillColor=#d2691e;strokeColor=none;fontColor=#ffffff;fontSize=20;fontStyle=1" vertex="1" parent="1">
          <mxGeometry x="1080" y="1460" width="50" height="50" as="geometry" />
        </mxCell>

        <!-- Annotations -->
        <mxCell id="note1" value="💡 Lightbox opens on&#xa;main image click" style="text;html=1;strokeColor=#b85450;fillColor=#f8cecc;align=left;verticalAlign=middle;whiteSpace=wrap;rounded=0;fontSize=9;" vertex="1" parent="1">
          <mxGeometry x="1180" y="300" width="120" height="35" as="geometry" />
        </mxCell>

        <mxCell id="note2" value="💡 Active thumbnail&#xa;has orange border" style="text;html=1;strokeColor=#b85450;fillColor=#f8cecc;align=left;verticalAlign=middle;whiteSpace=wrap;rounded=0;fontSize=9;" vertex="1" parent="1">
          <mxGeometry x="1180" y="620" width="120" height="35" as="geometry" />
        </mxCell>

        <mxCell id="note3" value="💡 For sensitive sites,&#xa;show general area only" style="text;html=1;strokeColor=#b85450;fillColor=#f8cecc;align=left;verticalAlign=middle;whiteSpace=wrap;rounded=0;fontSize=9;" vertex="1" parent="1">
          <mxGeometry x="1180" y="250" width="130" height="35" as="geometry" />
        </mxCell>

      </root>
    </mxGraphModel>
  </diagram>
</mxfile>